<svg width="406" height="412" viewBox="0 0 406 412" fill="none" xmlns="http://www.w3.org/2000/svg">
<path d="M341.734 89.1196C365.049 130.107 374.247 167.722 374.701 205.7C375.155 243.678 366.8 282.117 343.373 318.364C319.946 354.61 281.62 388.769 230.526 401.424C179.432 414.079 115.677 405.375 81.7216 369.003C47.7666 332.632 43.4539 269.001 53.0142 214.806C62.5746 160.611 85.896 115.878 119.871 74.9108C153.845 33.9436 198.559 -3.29694 239.638 0.232218C280.717 3.76138 318.327 48.1393 341.734 89.1196Z" fill="#9EF5EE"/>
<path d="M232.046 17.72L3 258.348L403 336.306L232.046 17.72Z" stroke="#EBF85E" stroke-width="4.36" stroke-linecap="round" stroke-linejoin="round"/>
<path d="M123.321 29.3281H84.4277V102.104H123.321V29.3281Z" fill="#383838"/>
<path d="M101.132 128.856L212.939 360.174L323.936 126.341L101.132 128.856Z" fill="#FE697D"/>
<path d="M211.865 98.7787C231.196 98.7787 246.867 83.1078 246.867 63.7768C246.867 44.4458 231.196 28.7749 211.865 28.7749C192.534 28.7749 176.863 44.4458 176.863 63.7768C176.863 83.1078 192.534 98.7787 211.865 98.7787Z" fill="white"/>
<path d="M198.381 15.5276C202.449 28.1225 210.239 39.1884 220.724 47.266C231.209 55.3437 243.896 60.0536 257.112 60.7746" stroke="#2B7C63" stroke-width="4.49" stroke-linecap="round" stroke-linejoin="round"/>
<path d="M213.018 67.0032C212.538 63.4214 213.499 60.3334 215.165 60.1095C216.831 59.8857 218.575 62.6116 219.056 66.1934C219.537 69.7752 218.575 72.8567 216.903 73.0805C215.231 73.3044 213.499 70.5851 213.018 67.0032Z" stroke="#2B7C63" stroke-width="4.49" stroke-linecap="round" stroke-linejoin="round"/>
<path d="M307.429 358.034C303.479 366.35 294.682 387.551 310.59 411.063L339.106 351.041L315.976 340.052L307.429 358.034Z" fill="#E56ACA"/>
<path fill-rule="evenodd" clip-rule="evenodd" d="M270.485 184.222C270.485 178.71 272.12 173.321 275.183 168.737C278.246 164.154 282.599 160.582 287.692 158.472C292.785 156.363 298.39 155.811 303.796 156.887C309.203 157.963 314.169 160.618 318.067 164.517C321.964 168.415 324.618 173.382 325.693 178.789C326.768 184.196 326.215 189.8 324.104 194.893C321.994 199.986 318.42 204.338 313.836 207.4C309.252 210.461 303.863 212.095 298.35 212.094C294.69 212.094 291.066 211.373 287.685 209.972C284.304 208.571 281.232 206.518 278.644 203.93C276.057 201.342 274.004 198.269 272.605 194.888C271.205 191.506 270.484 187.882 270.485 184.222V184.222Z" fill="white"/>
<path fill-rule="evenodd" clip-rule="evenodd" d="M52.9219 92.043C52.9219 86.5306 54.5565 81.142 57.619 76.5587C60.6815 71.9753 65.0344 68.403 70.1272 66.2935C75.22 64.184 80.8239 63.632 86.2304 64.7074C91.6369 65.7828 96.603 68.4373 100.501 72.3352C104.399 76.233 107.053 81.1992 108.129 86.6056C109.204 92.0121 108.652 97.6161 106.543 102.709C104.433 107.802 100.861 112.155 96.2774 115.217C91.694 118.28 86.3054 119.914 80.793 119.914C73.4011 119.914 66.312 116.978 61.0851 111.751C55.8583 106.524 52.9219 99.4349 52.9219 92.043V92.043Z" fill="white"/>
<path d="M228.656 127.684C224.281 147.301 226.49 167.813 234.94 186.05C243.389 204.287 257.61 219.234 275.404 228.581" stroke="#9EF5EE" stroke-width="5.14" stroke-linecap="round" stroke-linejoin="round"/>
<path d="M212.537 350.422C218.42 337.77 221.327 323.937 221.035 309.987C220.743 296.037 217.259 282.338 210.852 269.943C204.445 257.548 195.283 246.785 184.071 238.479C172.858 230.174 159.893 224.546 146.168 222.029" stroke="#9EF5EE" stroke-width="5.14" stroke-linecap="round" stroke-linejoin="round"/>
<path d="M135.14 199.222C152.522 195.415 168.415 186.619 180.871 173.912C193.327 161.204 201.804 145.138 205.262 127.684" stroke="#9EF5EE" stroke-width="5.14" stroke-linecap="round" stroke-linejoin="round"/>
<path d="M128.977 361.365C128.621 370.583 126.593 393.431 101.6 406.889L104.154 340.487L129.741 341.468L128.977 361.365Z" fill="#A2498E"/>
<path d="M332.628 294.002C304.092 207.755 139.834 333.158 126.442 343.153C111.232 354.505 122.972 370.017 129.589 371.051C136.206 372.085 352.558 354.228 332.628 294.002Z" fill="#A2498E"/>
<path d="M110.205 279.201C80.4246 365.02 287.104 365.336 303.782 365.546C322.758 365.79 322.877 346.334 318.268 341.488C313.659 336.642 131.011 219.251 110.205 279.201Z" fill="#E56ACA"/>
</svg>
