<svg width="323" height="400" viewBox="0 0 323 400" fill="none" xmlns="http://www.w3.org/2000/svg">
<path d="M21.6197 94.1159C2.49632 129.625 9.41495 177.026 20.2982 221.952C31.1814 266.877 46.0339 309.391 74.1749 324.316C102.316 339.324 143.75 326.777 182.093 307.259C220.417 287.823 255.637 261.431 275.071 217.952C294.506 174.566 298.159 114.044 271.651 76.7303C245.046 39.4988 188.371 25.3935 137.298 30.2319C86.2013 34.9884 40.8255 58.6066 21.6197 94.1159Z" fill="#9EF5EE"/>
<path d="M204.481 78.1486L321 193.726L147.869 267.051L204.481 78.1486Z" stroke="#EBF85E" stroke-width="3.06" stroke-linecap="round" stroke-linejoin="round"/>
<path d="M167.862 274.094C172.435 282.295 185.874 308.605 188.111 311.528C190.347 314.451 266.433 364.139 266.433 364.139C264.517 369.083 261.106 394.491 274.321 400C276.663 391.568 286.467 354.36 286.467 354.36L276.132 351.548L228.923 291.851C228.923 291.851 225.63 211.85 215.721 202.067C206.008 207.581 167.862 274.094 167.862 274.094Z" fill="#A44A90"/>
<path d="M209.406 326.463C197.805 318.672 188.856 312.503 188.11 311.509C185.874 308.585 172.444 282.28 167.862 274.075C167.862 274.075 206.022 207.562 215.721 202.053C222.315 208.56 225.978 246.153 227.692 270.587C223.842 291.533 218.044 311.89 209.406 326.463Z" fill="#383838"/>
<path d="M179.6 81.5833L246.445 185.497L138.793 205.782L179.6 81.5833Z" fill="#FE697D"/>
<path d="M168.603 70.1696C158.379 70.1696 150.092 61.4269 150.092 50.6421C150.092 39.8574 158.379 31.1146 168.603 31.1146C178.826 31.1146 187.113 39.8574 187.113 50.6421C187.113 61.4269 178.826 70.1696 168.603 70.1696Z" fill="#F9FFF9"/>
<path d="M155.813 47.0724C155.557 45.0753 156.069 43.3531 156.952 43.2132C157.834 43.0733 158.753 44.6073 159.005 46.59C159.256 48.5727 158.749 50.3093 157.871 50.4492C156.993 50.5891 156.069 49.0695 155.813 47.0724Z" stroke="#2B7C63" stroke-width="3.65" stroke-linecap="round" stroke-linejoin="round"/>
<path d="M168.602 24.419C162.21 24.419 157.028 18.9526 157.028 12.2095C157.028 5.46638 162.21 0 168.602 0C174.994 0 180.176 5.46638 180.176 12.2095C180.176 18.9526 174.994 24.419 168.602 24.419Z" fill="#2B7C63"/>
<path d="M215.721 202.072C207.49 207.518 154.509 222.608 140.434 224.339C134.339 234.981 79.2228 366.107 79.2228 366.107C72.8895 360.911 49.6734 353.738 41.9317 363.386C49.4356 368.581 87.431 395.798 87.431 395.798C87.431 395.798 214.55 222.116 215.721 202.072Z" fill="#E56ACA"/>
<path fill-rule="evenodd" clip-rule="evenodd" d="M49.1384 160.397H87.248L54.7263 66.0837H16.6167L49.1384 160.397Z" fill="#FEFDDB"/>
<path fill-rule="evenodd" clip-rule="evenodd" d="M101.095 50.6422L106.422 66.0838H88.7343L83.407 50.6422H101.095Z" fill="#9EF5EE"/>
<path opacity="0.75" fill-rule="evenodd" clip-rule="evenodd" d="M38.9082 103.417L47.9258 129.577H9.81614L0.793995 103.417H38.9082Z" fill="#9EF5EE"/>
<path d="M83.4066 55.5096C80.8583 55.5096 78.7926 53.3304 78.7926 50.6422C78.7926 47.954 80.8583 45.7748 83.4066 45.7748C85.9548 45.7748 88.0205 47.954 88.0205 50.6422C88.0205 53.3304 85.9548 55.5096 83.4066 55.5096Z" fill="#FE697D"/>
<path d="M168.452 115.057C173.94 121.21 180.723 125.915 188.252 128.794C195.782 131.672 203.847 132.643 211.798 131.627" stroke="#9EF5EE" stroke-width="5.14" stroke-linecap="round" stroke-linejoin="round"/>
<path d="M180.148 197.986C179.871 189.091 177.504 180.408 173.26 172.715C169.017 165.023 163.029 158.563 155.835 153.914" stroke="#9EF5EE" stroke-width="5.14" stroke-linecap="round" stroke-linejoin="round"/>
<path d="M164.168 128.559C170.876 136.803 179.791 142.714 189.741 145.517C199.692 148.319 210.213 147.881 219.924 144.261" stroke="#9EF5EE" stroke-width="5.14" stroke-linecap="round" stroke-linejoin="round"/>
<path fill-rule="evenodd" clip-rule="evenodd" d="M220.93 156.051C220.93 152.776 220.009 149.575 218.284 146.853C216.56 144.13 214.109 142.008 211.241 140.755C208.373 139.502 205.217 139.174 202.172 139.814C199.128 140.453 196.332 142.03 194.137 144.346C191.942 146.662 190.448 149.612 189.843 152.824C189.238 156.036 189.549 159.365 190.738 162.39C191.926 165.415 193.939 168.001 196.52 169.819C199.102 171.638 202.136 172.608 205.24 172.607C207.301 172.607 209.342 172.179 211.246 171.347C213.149 170.515 214.879 169.295 216.336 167.758C217.793 166.22 218.949 164.395 219.737 162.386C220.525 160.378 220.93 158.225 220.93 156.051V156.051Z" fill="#F9FFF9"/>
<path d="M34.7104 44.5302L44.6928 55.0609L47.9258 50.5505" stroke="#9EF5EE" stroke-width="5.14" stroke-linecap="round" stroke-linejoin="round"/>
<path d="M39.4067 64.9067L49.3891 75.4375L52.6221 70.9271" stroke="#9EF5EE" stroke-width="5.14" stroke-linecap="round" stroke-linejoin="round"/>
<path d="M48.6088 87.4009L58.5913 97.9316L61.8242 93.4164" stroke="#9EF5EE" stroke-width="5.14" stroke-linecap="round" stroke-linejoin="round"/>
<path fill-rule="evenodd" clip-rule="evenodd" d="M98.3506 116.2C98.3506 112.925 97.43 109.724 95.7054 107.002C93.9807 104.279 91.5294 102.157 88.6615 100.904C85.7935 99.651 82.6378 99.3234 79.5934 99.9626C76.5489 100.602 73.7526 102.179 71.5579 104.495C69.3633 106.811 67.869 109.761 67.2639 112.973C66.6589 116.185 66.9703 119.514 68.1589 122.539C69.3474 125.564 71.3596 128.15 73.9411 129.968C76.5225 131.787 79.5572 132.757 82.6613 132.756C84.7221 132.756 86.7626 132.328 88.6664 131.496C90.5702 130.664 92.3 129.444 93.7569 127.907C95.2139 126.369 96.3694 124.544 97.1576 122.535C97.9458 120.527 98.3512 118.374 98.3506 116.2Z" fill="#F9FFF9"/>
</svg>
