<svg width="400" height="402" viewBox="0 0 400 402" fill="none" xmlns="http://www.w3.org/2000/svg">
<path d="M359.895 27.4249C395.71 58.032 403.81 121.745 398.535 180.25C393.322 238.759 374.786 291.94 338.97 334.225C303.035 376.606 249.863 407.981 204.471 399.967C159.193 392.054 121.929 344.748 86.4014 302.367C50.7778 260.086 16.9909 222.818 4.92456 173.392C-7.14182 124.061 2.60816 62.5689 38.1359 32.0624C73.6588 1.46008 135.156 1.72865 197.713 0.587236C260.27 -0.554178 323.983 -3.06721 359.895 27.4249Z" fill="#E66ACA"/>
<path d="M205.958 275.083C267.54 275.083 317.461 225.161 317.461 163.579C317.461 101.997 267.54 52.0756 205.958 52.0756C144.376 52.0756 94.4541 101.997 94.4541 163.579C94.4541 225.161 144.376 275.083 205.958 275.083Z" fill="white" stroke="#C2C2C2" stroke-width="3" stroke-miterlimit="10"/>
<path d="M206.423 131.212C223.411 131.212 237.183 117.44 237.183 100.451C237.183 83.4627 223.411 69.6907 206.423 69.6907C189.434 69.6907 175.662 83.4627 175.662 100.451C175.662 117.44 189.434 131.212 206.423 131.212Z" fill="#9EF5EE"/>
<path d="M205.319 94.4757C204.949 91.3248 203.468 88.9029 202 89.0708C200.533 89.2386 199.636 91.9483 200 95.0896C200.365 98.2309 201.851 100.667 203.319 100.495C204.786 100.322 205.683 97.6458 205.319 94.4757Z" stroke="#52EDBD" stroke-width="3.65" stroke-linecap="round" stroke-linejoin="round"/>
<path d="M99.9688 308.894H311.946" stroke="#9EF5EE" stroke-width="7" stroke-linecap="round" stroke-linejoin="round"/>
<path d="M156.829 342.465H255.087" stroke="#9EF5EE" stroke-width="7" stroke-linecap="round" stroke-linejoin="round"/>
<path d="M201.309 142.031C158.046 142.031 144.196 206.636 141.894 254.849C159.834 267.437 181.085 274.461 202.993 275.044C224.902 275.626 246.496 269.742 265.08 258.125C262.116 209.552 247.028 142.027 201.309 142.031Z" fill="#FE697D"/>
<path d="M196.174 274.661C194.565 270.762 193.84 266.556 194.052 262.343C194.263 258.131 195.406 254.018 197.397 250.3C199.389 246.583 202.18 243.352 205.569 240.843C208.959 238.333 212.862 236.605 216.999 235.785C221.136 234.964 225.404 235.071 229.495 236.097C233.585 237.123 237.398 239.044 240.658 241.72C243.917 244.396 246.543 247.762 248.347 251.574C250.15 255.387 251.086 259.552 251.086 263.77C251.086 264.379 251.086 264.988 251.029 265.592" stroke="#9EF5EE" stroke-width="5.14" stroke-linecap="round" stroke-linejoin="round"/>
<path d="M147.505 209.514C154.042 209.633 160.34 211.993 165.345 216.199C170.35 220.406 173.759 226.203 175.001 232.622C176.244 239.041 175.244 245.692 172.17 251.462C169.096 257.232 164.134 261.772 158.113 264.321" stroke="#9EF5EE" stroke-width="5.14" stroke-linecap="round" stroke-linejoin="round"/>
<path d="M216.897 223.067C232.654 223.067 245.427 210.293 245.427 194.536C245.427 178.779 232.654 166.006 216.897 166.006C201.14 166.006 188.366 178.779 188.366 194.536C188.366 210.293 201.14 223.067 216.897 223.067Z" stroke="#9EF5EE" stroke-width="5.14" stroke-linecap="round" stroke-linejoin="round"/>
<path d="M192.097 143.082C191.475 150.191 188.211 156.81 182.949 161.631C177.687 166.453 170.809 169.128 163.672 169.128C162.991 169.128 162.315 169.104 161.648 169.061" stroke="#9EF5EE" stroke-width="5.14" stroke-linecap="round" stroke-linejoin="round"/>
<path d="M161.274 227C163.946 211.878 167.989 197.059 173.883 184.619" stroke="white" stroke-width="16.23" stroke-linecap="round" stroke-linejoin="round"/>
<path d="M205.958 275.083C267.54 275.083 317.461 225.161 317.461 163.579C317.461 101.997 267.54 52.0756 205.958 52.0756C144.376 52.0756 94.4541 101.997 94.4541 163.579C94.4541 225.161 144.376 275.083 205.958 275.083Z" stroke="#C2C2C2" stroke-width="3" stroke-miterlimit="10"/>
<path fill-rule="evenodd" clip-rule="evenodd" d="M125.065 256.998C125.066 253.42 126.128 249.923 128.116 246.949C130.105 243.975 132.93 241.657 136.236 240.288C139.542 238.92 143.179 238.562 146.688 239.261C150.196 239.959 153.419 241.683 155.949 244.213C158.478 246.743 160.201 249.966 160.898 253.475C161.596 256.984 161.237 260.621 159.868 263.926C158.499 267.232 156.18 270.057 153.205 272.044C150.23 274.032 146.733 275.093 143.155 275.093C140.779 275.093 138.427 274.624 136.232 273.715C134.036 272.806 132.042 271.473 130.362 269.792C128.682 268.112 127.35 266.117 126.441 263.922C125.532 261.727 125.065 259.374 125.065 256.998V256.998Z" fill="#9EF5EE"/>
<path fill-rule="evenodd" clip-rule="evenodd" d="M277.573 103.53C277.574 99.9527 278.636 96.4556 280.624 93.4814C282.613 90.5071 285.438 88.1892 288.744 86.8208C292.049 85.4523 295.687 85.0948 299.195 85.7933C302.704 86.4919 305.927 88.2151 308.456 90.7453C310.986 93.2754 312.708 96.4987 313.406 100.008C314.104 103.517 313.745 107.154 312.376 110.459C311.006 113.764 308.688 116.589 305.713 118.577C302.738 120.564 299.241 121.625 295.663 121.625C293.287 121.625 290.934 121.157 288.739 120.248C286.544 119.338 284.55 118.005 282.87 116.325C281.19 114.645 279.858 112.65 278.949 110.455C278.04 108.259 277.573 105.906 277.573 103.53V103.53Z" fill="#9EF5EE"/>
<path d="M180.525 72.0983C191.149 72.0983 199.761 63.486 199.761 52.8621C199.761 42.2382 191.149 33.6259 180.525 33.6259C169.901 33.6259 161.289 42.2382 161.289 52.8621C161.289 63.486 169.901 72.0983 180.525 72.0983Z" fill="#52EDBD"/>
</svg>
