<svg width="360" height="403" viewBox="0 0 360 403" fill="none" xmlns="http://www.w3.org/2000/svg">
<path d="M278.205 84.8999C300.304 119.772 295.882 168.397 294.619 215.758C293.355 263.119 295.32 309.267 273.231 324.378C251.142 339.488 205.029 323.532 163.353 319.046C121.676 314.559 84.4171 321.637 56.9811 306.556C29.5451 291.475 11.7187 254.211 14.8821 220.18C18.0455 186.148 42.0246 155.136 69.5302 120.334C97.0358 85.5316 127.909 46.7203 167.69 37.822C207.471 28.9238 256.101 50.0976 278.205 84.8999Z" fill="#E56ACA"/>
<path d="M257.255 352.635C312.689 352.635 357.628 307.696 357.628 252.261C357.628 196.827 312.689 151.888 257.255 151.888C201.82 151.888 156.882 196.827 156.882 252.261C156.882 307.696 201.82 352.635 257.255 352.635Z" stroke="#9EF5EE" stroke-width="3.06" stroke-linecap="round" stroke-linejoin="round"/>
<path fill-rule="evenodd" clip-rule="evenodd" d="M147.66 196.295C140.085 167.099 138.707 69.9288 187.586 65.2334C221.184 62.0004 252.55 151.127 250.665 182.383C230.172 202.94 167.138 209.441 147.66 196.295Z" fill="#FE697D"/>
<path d="M225.268 90.7842C216.581 106.947 212.229 125.085 212.635 143.43C213.042 161.775 218.192 179.702 227.586 195.465" stroke="#9EF5EE" stroke-width="5.14" stroke-linecap="round" stroke-linejoin="round"/>
<path d="M147.023 186.914C166.678 174.24 181.602 155.434 189.478 133.413C197.354 111.393 197.743 87.3882 190.585 65.1238" stroke="#9EF5EE" stroke-width="5.14" stroke-linecap="round" stroke-linejoin="round"/>
<path d="M111.391 17.3049L2 152.56L198.837 201.901L111.391 17.3049Z" stroke="#EBF85E" stroke-width="3.06" stroke-linecap="round" stroke-linejoin="round"/>
<path d="M177.052 53.1566C190.721 53.1566 201.802 42.0756 201.802 28.4066C201.802 14.7375 190.721 3.65649 177.052 3.65649C163.383 3.65649 152.302 14.7375 152.302 28.4066C152.302 42.0756 163.383 53.1566 177.052 53.1566Z" fill="#8CE08C"/>
<path d="M163.945 3C166.823 11.9061 172.332 19.731 179.746 25.443C187.161 31.1551 196.132 34.4862 205.477 34.997" stroke="#2B7C63" stroke-width="4.49" stroke-linecap="round" stroke-linejoin="round"/>
<path d="M159.951 23.8804C159.608 21.3487 160.289 19.1651 161.468 19.006C162.647 18.8468 163.886 20.7866 164.219 23.3084C164.552 25.8301 163.876 28.0186 162.702 28.1778C161.528 28.337 160.289 26.4121 159.951 23.8804Z" stroke="#2B7C63" stroke-width="4.49" stroke-linecap="round" stroke-linejoin="round"/>
<path d="M194.663 273.182C199.637 281.637 214.25 308.765 216.687 311.779C219.125 314.793 301.88 366.024 301.88 366.024C299.791 371.122 296.086 397.32 310.455 403C313.007 394.306 323.671 355.942 323.671 355.942L312.43 353.042L261.079 291.495C261.079 291.495 257.498 209.008 246.72 198.921C236.17 204.602 194.663 273.182 194.663 273.182Z" fill="#6BA8A3"/>
<path d="M239.851 327.178C227.232 319.145 217.498 312.784 216.687 311.759C214.25 308.745 199.647 281.622 194.663 273.162C194.663 273.162 236.17 204.582 246.72 198.902C253.912 205.631 257.891 244.398 259.741 269.586C255.534 291.162 249.242 312.152 239.851 327.178Z" fill="#383838"/>
<path d="M246.72 198.921C237.767 204.537 180.135 220.095 164.83 221.881C158.195 232.853 98.23 368.058 98.23 368.058C91.3412 362.702 66.0838 355.3 57.668 365.253C65.8301 370.61 107.158 398.668 107.158 398.668C107.158 398.668 245.457 219.588 246.72 198.921Z" fill="#9EF5EE"/>
<path d="M158.573 61.8462L151.773 64.9748L157.881 69.302L158.573 61.8462Z" stroke="#FE697D" stroke-width="3" stroke-linecap="round" stroke-linejoin="round"/>
<path d="M230.919 74.0658L96.3535 89.0647L99.9564 121.389L234.522 106.39L230.919 74.0658Z" fill="#FEFDDB"/>
<path d="M172.297 89.989L107.065 97.2598C105.97 97.3818 105.182 98.3682 105.304 99.463L106.398 109.28C106.52 110.375 107.507 111.164 108.601 111.042L173.833 103.771C174.928 103.649 175.716 102.662 175.594 101.568L174.5 91.7503C174.378 90.6555 173.391 89.867 172.297 89.989Z" fill="#8CE08C"/>
<path d="M224.249 84.1953L203.058 86.5574L204.594 100.339L225.786 97.9772L224.249 84.1953Z" fill="#8CE08C"/>
<path d="M199.636 69.4397L162.933 121.144C159.964 125.326 160.948 131.123 165.13 134.091L171.684 138.744C175.866 141.713 181.663 140.729 184.632 136.547L221.335 84.8431C224.304 80.6611 223.32 74.8642 219.138 71.8955L212.584 67.2427C208.402 64.274 202.605 65.2576 199.636 69.4397Z" fill="#9EF5EE"/>
<path d="M91.848 71.9949L63.2207 84.2409C59.5661 85.8042 57.8708 90.0341 59.4342 93.6887L71.6802 122.316C73.2435 125.971 77.4735 127.666 81.128 126.102L109.755 113.856C113.41 112.293 115.105 108.063 113.542 104.409L101.296 75.7814C99.7325 72.1268 95.5025 70.4315 91.848 71.9949Z" fill="#9EF5EE"/>
<path d="M84.9442 107.859C90.1525 107.859 94.3746 103.637 94.3746 98.4288C94.3746 93.2205 90.1525 88.9983 84.9442 88.9983C79.7358 88.9983 75.5137 93.2205 75.5137 98.4288C75.5137 103.637 79.7358 107.859 84.9442 107.859Z" stroke="#2B7C63" stroke-width="4.49" stroke-linecap="round" stroke-linejoin="round"/>
<path d="M100.418 104.626L93.6885 101.93" stroke="#2B7C63" stroke-width="4.49" stroke-linecap="round" stroke-linejoin="round"/>
<path d="M200.671 121.786H72.3051C69.819 121.786 67.8037 123.802 67.8037 126.288V189.406C67.8037 191.892 69.819 193.908 72.3051 193.908H200.671C203.157 193.908 205.173 191.892 205.173 189.406V126.288C205.173 123.802 203.157 121.786 200.671 121.786Z" fill="white"/>
<path fill-rule="evenodd" clip-rule="evenodd" d="M175.066 192.237C175.064 188.86 176.064 185.559 177.938 182.75C179.813 179.942 182.478 177.752 185.597 176.459C188.716 175.165 192.149 174.826 195.461 175.483C198.773 176.141 201.816 177.766 204.204 180.153C206.592 182.539 208.219 185.581 208.878 188.893C209.538 192.204 209.2 195.637 207.909 198.757C206.617 201.877 204.429 204.543 201.622 206.419C198.814 208.296 195.513 209.297 192.137 209.297C187.611 209.297 183.271 207.5 180.07 204.301C176.869 201.102 175.069 196.762 175.066 192.237V192.237Z" fill="#8CE08C"/>
<path fill-rule="evenodd" clip-rule="evenodd" d="M47.4961 171.993C47.4961 168.617 48.4973 165.316 50.373 162.509C52.2487 159.702 54.9147 157.514 58.0339 156.222C61.1531 154.93 64.5854 154.592 67.8967 155.25C71.2081 155.909 74.2497 157.535 76.6371 159.922C79.0244 162.31 80.6502 165.351 81.3088 168.662C81.9675 171.974 81.6295 175.406 80.3374 178.525C79.0454 181.645 76.8575 184.311 74.0503 186.186C71.2431 188.062 67.9427 189.063 64.5665 189.063C62.3246 189.064 60.1045 188.623 58.0332 187.765C55.9618 186.907 54.0797 185.65 52.4944 184.065C50.9092 182.48 49.6518 180.597 48.7942 178.526C47.9365 176.455 47.4954 174.235 47.4961 171.993V171.993Z" fill="#8CE08C"/>
<path d="M205.282 135.902L205.168 126.283C205.168 125.096 204.696 123.957 203.857 123.118C203.017 122.278 201.879 121.806 200.692 121.806H72.3056C71.1184 121.806 69.9797 122.278 69.1402 123.118C68.3007 123.957 67.8291 125.096 67.8291 126.283V138.668C107.506 130.212 204.875 135.982 205.282 135.902Z" fill="#EAEAEA"/>
<path d="M207.675 81.7117L182.786 116.768" stroke="#2B7C63" stroke-width="4.49" stroke-linecap="round" stroke-linejoin="round"/>
<path d="M208.541 109.601H63.9846C61.7403 109.601 59.9209 111.42 59.9209 113.664V124.388C59.9209 126.632 61.7403 128.452 63.9846 128.452H208.541C210.785 128.452 212.604 126.632 212.604 124.388V113.664C212.604 111.42 210.785 109.601 208.541 109.601Z" fill="white"/>
<path d="M115.489 79.6525V88.6453C115.489 88.9846 115.579 89.3179 115.748 89.6118C115.918 89.9056 116.162 90.1497 116.456 90.3195C116.75 90.4894 117.083 90.5789 117.422 90.5793C117.761 90.5796 118.095 90.4907 118.389 90.3215L126.178 85.845C126.473 85.6752 126.717 85.431 126.887 85.1367C127.057 84.8425 127.147 84.5086 127.147 84.1688C127.147 83.8289 127.057 83.4951 126.887 83.2009C126.717 82.9066 126.473 82.6623 126.178 82.4926L118.389 78.0161C118.098 77.8484 117.768 77.7595 117.432 77.7581C117.096 77.7566 116.765 77.8427 116.473 78.0078C116.18 78.173 115.936 78.4115 115.763 78.6999C115.591 78.9882 115.496 79.3166 115.489 79.6525V79.6525Z" stroke="#9EF5EE" stroke-width="5.14" stroke-linecap="round" stroke-linejoin="round"/>
</svg>
